<svg version="1.1" id="Layer_1" xmlns="http://www.w3.org/2000/svg" xmlns:xlink="http://www.w3.org/1999/xlink" x="0px" y="0px"
	 width="100%" viewBox="0 0 172 154" enable-background="new 0 0 172 154" xml:space="preserve">
<path fill="#FEFEFE" opacity="1.000000" stroke="none" 
	d="
M1.000000,57.000000 
	C1.000000,38.000004 1.000000,19.500011 1.000000,1.000008 
	C56.999981,1.000000 113.000061,1.039812 168.999695,0.902861 
	C172.424591,0.894485 173.107681,1.574690 173.097641,5.000217 
	C172.954468,53.833118 172.965927,102.666656 173.083176,151.499695 
	C173.090363,154.482361 172.483002,155.089050 169.499954,155.082916 
	C114.500198,154.969666 59.500088,154.969696 4.500334,155.082840 
	C1.518043,155.088974 0.902133,154.484482 0.915206,151.499802 
	C1.052443,120.167007 1.000000,88.833389 1.000000,57.000000 
z"/>
<path fill="#5862A9" opacity="1.000000" stroke="none" 
	d="
M71.074242,47.760506 
	C65.803909,53.046310 59.787861,57.566517 56.235107,63.549461 
	C53.373589,68.368340 49.645672,73.636436 51.759407,80.735504 
	C55.452496,93.138931 58.104786,105.859955 60.950878,118.502441 
	C61.659702,121.651062 62.950066,122.937096 66.219337,123.024162 
	C71.213387,123.157173 76.068970,124.403709 80.891830,125.731628 
	C84.055000,126.602570 86.660492,128.300781 88.932358,130.531555 
	C95.131340,136.618378 94.033417,143.097488 85.947830,145.952591 
	C70.159386,151.527649 53.869236,153.060425 37.268799,150.756256 
	C35.324989,150.486435 33.387558,149.777954 31.584953,148.966705 
	C28.026230,147.365067 24.554470,145.455307 24.462070,140.866562 
	C24.368374,136.213394 26.230932,132.585403 30.376764,130.083664 
	C35.890499,126.756454 41.867523,124.893623 48.159920,123.973152 
	C51.007893,123.556526 51.965836,122.730721 51.188961,119.504448 
	C47.961781,106.102371 45.063835,92.620277 42.133015,79.148415 
	C41.725220,77.273933 41.200611,75.925507 39.357967,74.822105 
	C34.427727,71.869820 33.057396,68.186256 34.656788,63.588139 
	C36.417183,58.527138 41.119343,55.052780 46.109211,56.014980 
	C49.091320,56.590023 50.709320,55.614330 52.504070,53.672398 
	C60.727348,44.774799 69.045105,35.973549 77.077171,26.890215 
	C80.562569,22.948637 82.929527,19.304863 84.426315,14.251222 
	C86.903587,5.887156 97.025909,1.880033 104.788193,5.668462 
	C107.828194,7.152148 110.560577,7.319940 113.772835,6.872631 
	C124.272629,5.410534 139.773209,13.468733 144.133240,22.693581 
	C144.927811,26.552460 146.092697,30.099909 143.123840,33.684105 
	C142.835373,34.028107 142.447693,34.339531 142.391846,34.581818 
	C143.198303,36.936214 142.208206,38.366199 140.323395,39.784599 
	C140.056549,40.004230 139.726044,40.364902 139.639862,40.593819 
	C137.579391,50.230354 124.780457,61.787849 116.355286,61.307163 
	C115.570518,61.088520 115.124817,61.027531 114.341034,60.974922 
	C113.825928,61.135273 113.648895,61.287235 113.487511,61.089588 
	C113.191010,60.522247 112.878868,60.304516 112.277840,60.042645 
	C109.322205,58.823193 105.866035,58.931984 104.532181,55.119911 
	C104.200844,54.535534 103.947220,54.293373 103.431458,53.988983 
	C102.309357,53.254398 101.213699,53.703613 100.250443,52.948738 
	C98.037682,48.812416 94.666534,45.827847 92.971146,41.334553 
	C91.649307,40.228027 91.211868,39.065643 90.811882,37.749756 
	C89.135628,32.235111 87.444145,31.685799 83.577797,35.687153 
	C80.294525,39.085064 76.221352,41.749023 73.839584,46.012955 
	C73.344521,46.899231 72.265549,47.169838 71.074242,47.760506 
z"/>
<path fill="#F7F9F9" opacity="1.000000" stroke="none" 
	d="
M116.179657,61.433601 
	C125.731880,59.423634 131.282501,52.316856 136.714294,45.081165 
	C137.608856,43.889519 138.304886,42.548824 139.323181,41.049873 
	C141.771713,42.136326 141.315994,47.245277 146.707581,44.576157 
	C148.935913,43.473015 153.667419,46.864460 155.486343,50.493023 
	C156.153961,51.824833 154.603378,51.858166 153.314682,51.993736 
	C149.944641,52.054920 147.384338,49.974773 144.118042,50.087204 
	C146.883041,51.319889 149.546295,52.107052 152.616776,52.722481 
	C153.171844,54.333500 156.276855,53.506096 155.389648,55.705799 
	C154.798264,57.172073 153.396759,56.907181 152.027451,56.579266 
	C149.533264,55.981964 148.862549,59.796059 145.850616,59.175926 
	C143.137650,59.993736 142.052444,57.620354 139.543304,57.024147 
	C141.175568,58.567226 142.841248,59.401329 143.337189,61.503494 
	C140.666260,64.087204 138.847992,66.633636 139.939331,70.405952 
	C140.094574,70.942581 139.801376,71.743263 139.464371,72.256752 
	C138.948929,73.042107 137.413254,73.147163 137.304581,72.782043 
	C136.182281,69.011467 130.458221,74.833908 130.047745,68.998314 
	C129.633896,63.114838 125.803772,61.039555 119.962524,63.200085 
	C117.803787,63.998550 117.382751,62.577785 116.179657,61.433601 
z"/>
<path fill="#F4F7F7" opacity="1.000000" stroke="none" 
	d="
M71.193031,47.923908 
	C74.703415,42.606831 79.477142,38.071472 84.054024,33.362141 
	C87.278763,30.044069 90.479645,30.950047 91.721985,35.464218 
	C92.155960,37.041122 92.428238,38.662537 92.793961,40.638985 
	C88.083694,38.788086 83.954460,38.945248 79.675858,42.675648 
	C78.303688,43.872013 76.044228,43.633945 75.752876,46.467491 
	C75.516510,48.766319 73.146011,47.758945 71.193031,47.923908 
z"/>
<path fill="#5E66A9" opacity="1.000000" stroke="none" 
	d="
M152.912155,52.638908 
	C149.047287,54.289974 145.925537,51.659370 142.469193,50.845699 
	C141.715836,50.668350 140.936691,49.987995 141.434204,48.978844 
	C141.873444,48.087936 142.726181,48.043194 143.575607,48.341145 
	C146.543747,49.382286 149.504761,50.443733 152.716751,51.748066 
	C152.965012,51.998661 152.893524,52.424038 152.912155,52.638908 
z"/>
<path fill="#F7F9F9" opacity="1.000000" stroke="none" 
	d="
M140.406525,40.043797 
	C140.712296,38.455269 141.368027,36.906300 142.179871,35.090714 
	C144.523376,36.304077 147.238998,35.560196 149.790894,36.848549 
	C149.695312,39.620022 147.200699,39.026424 145.586395,40.271023 
	C143.528595,43.479515 142.292038,39.921936 140.406525,40.043797 
z"/>
<path fill="#6069A9" opacity="1.000000" stroke="none" 
	d="
M143.602066,61.888168 
	C141.625931,60.325588 139.885895,58.830059 138.214447,57.261433 
	C137.630188,56.713112 137.007004,55.901394 137.944763,55.222061 
	C138.356018,54.924137 139.304672,54.885242 139.721771,55.162037 
	C141.495331,56.338993 143.161209,57.678242 145.157867,59.096889 
	C145.537598,59.950989 145.625839,60.666431 145.594635,61.734215 
	C146.056580,62.571381 145.973892,62.888107 145.327576,62.643219 
	C144.902344,62.140759 144.383728,62.033615 143.602066,61.888168 
z"/>
<path fill="#F7F9F9" opacity="1.000000" stroke="none" 
	d="
M143.165741,33.887543 
	C143.360275,30.667442 144.592041,27.398788 144.193619,23.477638 
	C144.490387,23.454311 144.723984,23.881268 145.004120,24.275131 
	C148.859238,29.695398 148.860809,29.694284 143.165741,33.887543 
z"/>
<path fill="#F7F9F9" opacity="1.000000" stroke="none" 
	d="
M104.112106,54.931713 
	C106.843109,56.328262 109.231750,57.878819 111.804672,59.713936 
	C109.881302,59.979546 107.665764,60.362858 105.694786,59.834278 
	C103.499466,59.245544 100.324051,58.296749 104.112106,54.931713 
z"/>
<path fill="#5963A7" opacity="1.000000" stroke="none" 
	d="
M145.639633,40.644230 
	C145.817474,38.134228 147.943039,38.244736 149.807648,37.387901 
	C150.792892,37.055256 151.550003,36.950127 152.677582,36.748833 
	C153.222015,36.664146 153.395966,36.675629 153.790985,36.826797 
	C154.012039,36.966488 153.997604,37.000340 154.014252,36.992599 
	C154.831635,37.991074 154.489624,38.833954 153.299133,39.730183 
	C152.942093,39.853779 152.448898,39.890099 152.226776,39.998703 
	C151.560257,40.493595 151.080566,40.802677 150.177704,40.761475 
	C148.589279,40.754292 147.286850,40.797272 145.639633,40.644230 
z"/>
<path fill="#F7F9F9" opacity="1.000000" stroke="none" 
	d="
M153.147644,40.141155 
	C153.408005,39.155529 154.305527,38.684086 154.069016,37.310802 
	C155.539169,37.453819 158.411957,35.968891 158.325531,38.335060 
	C158.256638,40.221455 155.772247,41.435810 153.147644,40.141155 
z"/>
<path fill="#F7F9F9" opacity="1.000000" stroke="none" 
	d="
M145.297211,62.650948 
	C145.420944,62.247906 145.475632,62.171623 145.475403,62.129089 
	C150.704834,61.689709 147.946777,64.485970 147.549225,66.651176 
	C145.442596,65.991051 145.257721,64.552788 145.297211,62.650948 
z"/>
<path fill="#F7F9F9" opacity="1.000000" stroke="none" 
	d="
M100.040543,52.882519 
	C101.205887,52.368618 102.026947,52.753601 102.977951,53.635635 
	C101.166290,53.801891 100.604416,56.497643 98.508369,56.275581 
	C97.378136,54.564449 99.242790,54.139847 100.040543,52.882519 
z"/>
<path fill="#F7F9F9" opacity="1.000000" stroke="none" 
	d="
M150.034607,40.976776 
	C150.404083,40.489628 150.916443,40.267944 151.716736,40.076782 
	C151.774185,41.095135 151.643677,42.243851 150.034607,40.976776 
z"/>
<path fill="#F7F9F9" opacity="1.000000" stroke="none" 
	d="
M113.279411,60.838428 
	C113.503151,60.739979 113.809158,60.746418 113.906059,60.864864 
	C113.635872,61.220150 113.268776,61.456985 112.901688,61.693825 
	C112.953011,61.441509 113.004341,61.189194 113.279411,60.838428 
z"/>
<path fill="#F7F9F9" opacity="1.000000" stroke="none" 
	d="
M153.950226,36.804993 
	C153.846863,36.928013 153.681702,36.889542 153.282288,36.751869 
	C153.328171,36.649605 153.608276,36.646549 153.950226,36.804993 
z"/>
<path fill="#FBFBFB" opacity="1.000000" stroke="none" 
	d="
M124.197403,22.889420 
	C113.045349,35.318230 110.420517,40.426178 108.499023,53.506214 
	C99.391365,48.850273 93.820229,41.730106 94.314949,31.399059 
	C94.779945,21.688868 99.711067,14.479749 109.458206,10.986451 
	C110.062256,10.962877 110.335648,10.797568 110.749306,10.388714 
	C111.396469,10.174435 111.818962,10.064087 112.570503,9.941298 
	C115.326820,9.084434 117.826706,9.677630 120.728180,9.718033 
	C121.165909,9.880571 121.600464,9.909173 121.796013,10.004959 
	C122.438324,10.491360 122.873795,10.906298 123.816818,10.704844 
	C125.586006,11.216348 127.080109,11.843575 128.784607,12.744922 
	C129.242905,13.237667 129.480560,13.466925 129.936584,13.801800 
	C130.165222,13.896786 130.044785,13.923487 130.089462,13.880960 
	C130.744873,15.245512 131.326401,16.654791 130.219894,18.557659 
	C128.614273,19.918123 127.249451,20.894020 125.587646,21.985340 
	C124.928848,22.204073 124.619507,22.394987 124.197403,22.889420 
z"/>
<path fill="#F7F8F9" opacity="1.000000" stroke="none" 
	d="
M47.832893,126.862000 
	C51.344742,125.500954 52.997463,126.212234 53.598488,129.855042 
	C54.294193,134.071716 57.849571,133.354095 60.758499,133.005920 
	C63.467648,132.681656 64.364288,131.049530 63.312164,128.371201 
	C62.775566,127.005211 62.824516,125.576599 64.921364,125.757629 
	C71.542496,126.329269 78.199394,126.957466 84.109390,130.331680 
	C87.853592,132.469360 87.800789,134.097961 84.002747,136.286591 
	C77.363007,140.112747 69.849449,141.001617 62.460171,141.735962 
	C54.722187,142.504944 46.876137,143.056488 39.162971,141.142288 
	C35.555813,140.247086 31.034563,138.971420 30.691811,135.278656 
	C30.328205,131.361206 35.244797,130.626373 38.330887,129.372467 
	C41.218712,128.199142 44.386299,127.714340 47.832893,126.862000 
z"/>
<path fill="#F4F6F7" opacity="1.000000" stroke="none" 
	d="
M134.067810,43.997040 
	C130.209137,49.268341 126.242004,53.946526 120.620033,56.817856 
	C118.226654,58.040234 115.554977,59.190586 113.276863,56.810352 
	C110.922989,54.350967 111.823853,51.177948 112.206192,48.265461 
	C112.422409,46.618423 113.857300,46.972664 114.989441,47.235855 
	C121.885201,48.838928 127.055046,46.007877 130.819977,40.561562 
	C134.570694,35.135807 134.512619,29.398615 130.903305,23.781593 
	C130.647476,23.383432 130.527649,22.897877 130.327606,22.411709 
	C133.223419,20.651480 136.397415,18.413910 139.515106,20.623692 
	C142.907562,23.028234 141.502350,27.060095 140.707352,30.322144 
	C139.523956,35.177765 137.123260,39.578098 134.067810,43.997040 
z"/>
<path fill="#EFF2F6" opacity="1.000000" stroke="none" 
	d="
M40.047142,144.159790 
	C57.429787,146.245300 73.862442,144.887222 89.394928,136.659760 
	C91.103462,140.185471 88.562477,141.682480 86.008308,142.935257 
	C80.721107,145.528549 74.966415,146.556961 69.209305,147.390823 
	C58.977566,148.872787 48.719593,149.816940 38.399048,148.077881 
	C35.393410,147.571411 32.629490,146.539474 30.053648,144.952469 
	C27.462503,143.356018 26.689034,141.143356 27.680191,137.754868 
	C31.504684,140.767334 35.000156,143.581985 40.047142,144.159790 
z"/>
<path fill="#EFF2F5" opacity="1.000000" stroke="none" 
	d="
M49.790474,100.262741 
	C48.140305,92.903755 46.530621,85.965439 45.060505,78.997673 
	C44.845135,77.976891 43.657028,76.358109 45.970573,75.870842 
	C47.979771,75.447670 48.132439,76.964630 48.425724,78.183975 
	C52.414188,94.766396 56.346176,111.362442 60.366272,127.937141 
	C60.695419,129.294189 60.770706,130.337982 59.237892,130.573898 
	C57.256283,130.878860 56.311192,129.836044 55.888969,127.846092 
	C54.376354,120.717064 52.698624,113.623154 51.099190,106.512398 
	C50.662884,104.572662 50.282185,102.620415 49.790474,100.262741 
z"/>
<path fill="#F4F6F8" opacity="1.000000" stroke="none" 
	d="
M99.085266,14.104276 
	C94.718536,18.520884 92.319199,23.526941 91.674065,29.391169 
	C86.242928,26.617048 84.406471,19.951981 87.341194,14.118294 
	C90.576210,7.687682 98.001953,5.470410 104.921204,9.132391 
	C103.004547,10.758730 101.175644,12.310608 99.085266,14.104276 
z"/>
<path fill="#F0F3F6" opacity="1.000000" stroke="none" 
	d="
M123.648216,27.728367 
	C127.962807,23.655565 128.897980,23.925959 130.354202,29.352589 
	C132.370422,36.865959 125.784508,45.150421 117.952072,44.973907 
	C114.516991,44.896488 112.885620,43.942024 114.895393,40.178440 
	C117.258194,35.753757 119.934929,31.603291 123.648216,27.728367 
z"/>
<path fill="#EEF2F5" opacity="1.000000" stroke="none" 
	d="
M73.844711,34.858070 
	C76.630554,31.961481 79.134880,29.284292 81.757576,26.728588 
	C82.385094,26.117105 83.017860,24.241150 84.362961,26.027670 
	C85.110802,27.020927 85.472061,28.103788 84.346252,29.137650 
	C84.101913,29.362028 83.892303,29.624012 83.664223,29.866346 
	C74.537361,39.563671 65.429726,49.279293 56.250710,58.927013 
	C55.400482,59.820652 54.616749,62.002472 52.829334,60.402275 
	C50.889202,58.665367 52.798409,57.492649 53.872623,56.334808 
	C60.441063,49.255013 67.026688,42.191158 73.844711,34.858070 
z"/>
<path fill="#EAEDF3" opacity="1.000000" stroke="none" 
	d="
M39.447617,71.721207 
	C36.343952,68.734108 36.216095,65.654610 38.264423,62.512016 
	C40.119774,59.665497 42.763885,58.075397 46.278442,58.839310 
	C49.441078,59.526733 50.739063,62.035965 51.467751,64.871338 
	C52.163757,67.579559 51.106216,69.857018 49.029888,71.446815 
	C46.155491,73.647675 42.974747,73.855789 39.447617,71.721207 
z"/>
<path fill="#F0F3F6" opacity="1.000000" stroke="none" 
	d="
M130.333252,18.886927 
	C130.003311,17.525166 130.027527,16.108109 130.092941,14.264742 
	C131.613464,14.676942 133.834198,15.080740 133.825150,17.077131 
	C133.819351,18.354980 131.669464,18.044596 130.333252,18.886927 
z"/>
<path fill="#D3D6E5" opacity="1.000000" stroke="none" 
	d="
M120.843414,9.656948 
	C118.714371,9.932746 116.262825,9.984921 113.355423,9.982975 
	C115.361290,8.552904 117.943481,9.029675 120.843414,9.656948 
z"/>
<path fill="#F0F3F6" opacity="1.000000" stroke="none" 
	d="
M123.877197,10.406382 
	C123.922325,11.304102 124.096802,12.342947 123.095085,12.439728 
	C121.965576,12.548858 122.158699,11.485700 122.002228,10.441017 
	C122.548546,10.141710 123.105522,10.182676 123.877197,10.406382 
z"/>
<path fill="#F0F3F6" opacity="1.000000" stroke="none" 
	d="
M130.059875,13.652803 
	C129.862152,13.752043 129.559067,13.607302 129.125488,13.240801 
	C129.314835,13.148969 129.634689,13.278895 130.059875,13.652803 
z"/>
<path fill="#EEF0F4" opacity="1.000000" stroke="none" 
	d="
M110.709991,10.288190 
	C110.718941,10.493265 110.463890,10.701747 109.956650,10.949399 
	C109.951637,10.756245 110.198822,10.523920 110.709991,10.288190 
z"/>
<path fill="#F0F3F6" opacity="1.000000" stroke="none" 
	d="
M124.302261,23.020348 
	C124.270226,22.824080 124.500893,22.530493 125.011124,22.168839 
	C125.048775,22.374857 124.806870,22.648945 124.302261,23.020348 
z"/>
<path fill="#5E67A8" opacity="1.000000" stroke="none" 
	d="
M132.297272,63.992786 
	C132.100891,62.771446 132.105621,61.900234 133.011627,61.495117 
	C134.031540,61.039070 134.450821,61.863266 134.868790,62.567669 
	C134.950958,62.706135 135.030396,62.883106 135.018387,63.034985 
	C134.862320,65.008438 137.591522,67.872047 134.975052,68.699814 
	C132.285736,69.550621 133.447754,65.797195 132.297272,63.992786 
z"/>
<path fill="#F0F3F6" opacity="1.000000" stroke="none" 
	d="
M121.528877,15.415790 
	C121.587524,14.949156 121.821602,14.664480 122.055679,14.379805 
	C122.233879,14.566329 122.412079,14.752853 122.590286,14.939373 
	C122.294960,15.158830 121.999634,15.378288 121.528877,15.415790 
z"/>
<path fill="#F0F3F6" opacity="1.000000" stroke="none" 
	d="
M126.990242,16.241474 
	C127.100960,16.408762 127.046844,16.577282 126.992729,16.745802 
	C126.936958,16.578102 126.881187,16.410402 126.990242,16.241474 
z"/>
<path fill="#EEF0F4" opacity="1.000000" stroke="none" 
	d="
M109.450195,13.532295 
	C109.417282,13.477090 109.483116,13.587501 109.450195,13.532295 
z"/>
<path fill="#6168AC" opacity="1.000000" stroke="none" 
	d="
M40.333244,132.956314 
	C42.467888,131.404144 44.285366,131.183151 45.686218,133.250244 
	C46.485970,134.430359 46.353806,135.791809 45.304615,136.846695 
	C44.159943,137.997604 42.723671,138.337585 41.251518,137.599014 
	C39.307869,136.623871 38.667530,135.170166 40.333244,132.956314 
z"/>
<path fill="#6F73B3" opacity="1.000000" stroke="none" 
	d="
M121.830650,41.070675 
	C119.819443,42.038757 118.148857,43.215729 115.044968,41.626945 
	C118.034348,40.934689 119.742943,39.458546 122.104149,40.018074 
	C122.180649,40.036201 122.249672,40.262016 122.247864,40.389965 
	C122.245598,40.549866 122.166252,40.708672 121.830650,41.070675 
z"/>
<path fill="#666CAE" opacity="1.000000" stroke="none" 
	d="
M47.567036,62.958290 
	C49.810696,65.462410 49.451069,67.817169 47.209724,69.626976 
	C44.729523,71.629639 42.269283,71.081757 40.230995,68.328270 
	C40.405632,67.847023 40.567444,67.719444 41.031429,67.526634 
	C41.946217,67.464302 42.547428,67.588745 43.453400,67.610138 
	C45.511189,67.261520 45.728695,65.798424 46.188858,64.118622 
	C46.522385,63.403950 46.839298,63.098026 47.567036,62.958290 
z"/>
<path fill="#757BB9" opacity="1.000000" stroke="none" 
	d="
M41.313698,67.686752 
	C41.123245,67.926544 40.684765,67.980331 40.464294,67.977470 
	C38.268757,65.535370 39.876720,63.709286 41.493317,62.177364 
	C43.447937,60.325123 45.612930,60.695610 47.743187,62.720497 
	C47.571266,63.158409 47.320686,63.364693 47.043396,63.888344 
	C45.255482,64.755074 43.132599,64.428940 41.891846,66.615250 
	C41.677177,67.077118 41.590668,67.262039 41.313698,67.686752 
z"/>
<path fill="#F4F8F9" opacity="1.000000" stroke="none" 
	d="
M40.896683,67.262070 
	C41.903130,63.312458 42.433865,62.995335 46.646488,63.926403 
	C47.390800,66.707962 47.241470,68.904816 43.392651,68.808876 
	C42.464607,68.179993 41.996552,67.528336 40.896683,67.262070 
z"/>
<path fill="#EAEDF3" opacity="1.000000" stroke="none" 
	d="
M40.741989,67.356735 
	C41.541767,67.044197 42.408302,67.056259 42.937401,68.399803 
	C42.556702,68.495461 42.097591,68.272316 41.380863,67.987854 
	C41.123245,67.926544 40.862194,67.551186 40.741989,67.356735 
z"/>
</svg>